<?xml version="1.0" encoding="UTF-8"?>

<!DOCTYPE svg PUBLIC '-//W3C//DTD SVG 20001102//EN' 'http://www.w3.org/TR/2000/CR-SVG-20001102/DTD/svg-20001102.dtd'>
<svg style="fill-opacity:1; color-interpolation:sRGB; color-rendering:auto; text-rendering:auto; stroke:black; stroke-linecap:square; stroke-miterlimit:10; stroke-opacity:1; shape-rendering:auto; fill:black; stroke-dasharray:none; font-weight:normal; stroke-width:1; font-family:&apos;Arial&apos;; font-style:normal; stroke-linejoin:miter; font-size:12; image-rendering:auto; stroke-dashoffset:0;">
  <!--Generated by the Batik Graphics2D SVG Generator-->
  <defs id="genericDefs" />
  <g>
    <defs id="defs1">
      <clipPath clipPathUnits="userSpaceOnUse" id="clipPath1">
        <path d="M0 0 L1311 0 L1311 822 L0 822 L0 0 Z" />
      </clipPath>
      <clipPath clipPathUnits="userSpaceOnUse" id="clipPath2">
        <path d="M40 675 L40 786 L300 786 L300 675 Z" />
      </clipPath>
      <clipPath clipPathUnits="userSpaceOnUse" id="clipPath3">
        <path d="M41 676 L41 692 L300 692 L300 676 Z" />
      </clipPath>
      <clipPath clipPathUnits="userSpaceOnUse" id="clipPath4">
        <path d="M40 727 L40 776 L300 776 L300 727 Z" />
      </clipPath>
      <clipPath clipPathUnits="userSpaceOnUse" id="clipPath5">
        <path d="M42 729 L42 775 L299 775 L299 729 Z" />
      </clipPath>
      <clipPath clipPathUnits="userSpaceOnUse" id="clipPath6">
        <path d="M20 20 L20 137 L293 137 L293 20 Z" />
      </clipPath>
      <clipPath clipPathUnits="userSpaceOnUse" id="clipPath7">
        <path d="M21 21 L21 52 L293 52 L293 21 Z" />
      </clipPath>
      <clipPath clipPathUnits="userSpaceOnUse" id="clipPath8">
        <path d="M20 64 L20 98 L293 98 L293 64 Z" />
      </clipPath>
      <clipPath clipPathUnits="userSpaceOnUse" id="clipPath9">
        <path d="M22 66 L22 97 L292 97 L292 66 Z" />
      </clipPath>
      <clipPath clipPathUnits="userSpaceOnUse" id="clipPath10">
        <path d="M322 675 L322 809 L670 809 L670 675 Z" />
      </clipPath>
      <clipPath clipPathUnits="userSpaceOnUse" id="clipPath11">
        <path d="M323 676 L323 692 L670 692 L670 676 Z" />
      </clipPath>
      <clipPath clipPathUnits="userSpaceOnUse" id="clipPath12">
        <path d="M322 704 L322 723 L670 723 L670 704 Z" />
      </clipPath>
      <clipPath clipPathUnits="userSpaceOnUse" id="clipPath13">
        <path d="M324 706 L324 722 L669 722 L669 706 Z" />
      </clipPath>
      <clipPath clipPathUnits="userSpaceOnUse" id="clipPath14">
        <path d="M322 735 L322 799 L670 799 L670 735 Z" />
      </clipPath>
      <clipPath clipPathUnits="userSpaceOnUse" id="clipPath15">
        <path d="M324 737 L324 798 L669 798 L669 737 Z" />
      </clipPath>
      <clipPath clipPathUnits="userSpaceOnUse" id="clipPath16">
        <path d="M195 244 L195 603 L471 603 L471 244 Z" />
      </clipPath>
      <clipPath clipPathUnits="userSpaceOnUse" id="clipPath17">
        <path d="M196 245 L196 261 L471 261 L471 245 Z" />
      </clipPath>
      <clipPath clipPathUnits="userSpaceOnUse" id="clipPath18">
        <path d="M195 273 L195 307 L471 307 L471 273 Z" />
      </clipPath>
      <clipPath clipPathUnits="userSpaceOnUse" id="clipPath19">
        <path d="M197 275 L197 306 L470 306 L470 275 Z" />
      </clipPath>
      <clipPath clipPathUnits="userSpaceOnUse" id="clipPath20">
        <path d="M195 319 L195 593 L471 593 L471 319 Z" />
      </clipPath>
      <clipPath clipPathUnits="userSpaceOnUse" id="clipPath21">
        <path d="M197 321 L197 592 L470 592 L470 321 Z" />
      </clipPath>
      <clipPath clipPathUnits="userSpaceOnUse" id="clipPath22">
        <path d="M375 20 L375 162 L644 162 L644 20 Z" />
      </clipPath>
      <clipPath clipPathUnits="userSpaceOnUse" id="clipPath23">
        <path d="M376 21 L376 52 L644 52 L644 21 Z" />
      </clipPath>
      <clipPath clipPathUnits="userSpaceOnUse" id="clipPath24">
        <path d="M375 87 L375 121 L644 121 L644 87 Z" />
      </clipPath>
      <clipPath clipPathUnits="userSpaceOnUse" id="clipPath25">
        <path d="M377 89 L377 120 L643 120 L643 89 Z" />
      </clipPath>
      <clipPath clipPathUnits="userSpaceOnUse" id="clipPath26">
        <path d="M375 133 L375 152 L644 152 L644 133 Z" />
      </clipPath>
      <clipPath clipPathUnits="userSpaceOnUse" id="clipPath27">
        <path d="M377 135 L377 151 L643 151 L643 135 Z" />
      </clipPath>
      <clipPath clipPathUnits="userSpaceOnUse" id="clipPath28">
        <path d="M666 20 L666 380 L942 380 L942 20 Z" />
      </clipPath>
      <clipPath clipPathUnits="userSpaceOnUse" id="clipPath29">
        <path d="M667 21 L667 37 L942 37 L942 21 Z" />
      </clipPath>
      <clipPath clipPathUnits="userSpaceOnUse" id="clipPath30">
        <path d="M666 49 L666 68 L942 68 L942 49 Z" />
      </clipPath>
      <clipPath clipPathUnits="userSpaceOnUse" id="clipPath31">
        <path d="M668 51 L668 67 L941 67 L941 51 Z" />
      </clipPath>
      <clipPath clipPathUnits="userSpaceOnUse" id="clipPath32">
        <path d="M666 80 L666 339 L942 339 L942 80 Z" />
      </clipPath>
      <clipPath clipPathUnits="userSpaceOnUse" id="clipPath33">
        <path d="M668 82 L668 338 L941 338 L941 82 Z" />
      </clipPath>
      <clipPath clipPathUnits="userSpaceOnUse" id="clipPath34">
        <path d="M666 351 L666 370 L942 370 L942 351 Z" />
      </clipPath>
      <clipPath clipPathUnits="userSpaceOnUse" id="clipPath35">
        <path d="M668 353 L668 369 L941 369 L941 353 Z" />
      </clipPath>
      <clipPath clipPathUnits="userSpaceOnUse" id="clipPath36">
        <path d="M1129 20 L1129 176 L1298 176 L1298 20 Z" />
      </clipPath>
      <clipPath clipPathUnits="userSpaceOnUse" id="clipPath37">
        <path d="M1130 21 L1130 52 L1298 52 L1298 21 Z" />
      </clipPath>
      <clipPath clipPathUnits="userSpaceOnUse" id="clipPath38">
        <path d="M1129 87 L1129 166 L1298 166 L1298 87 Z" />
      </clipPath>
      <clipPath clipPathUnits="userSpaceOnUse" id="clipPath39">
        <path d="M1131 89 L1131 165 L1297 165 L1297 89 Z" />
      </clipPath>
    </defs>
    <g style="fill:teal; stroke:teal;">
      <line x1="245" x2="245" y1="244" style="clip-path:url(#clipPath1); fill:none;" y2="235" />
      <line x1="245" x2="245" y1="230" style="clip-path:url(#clipPath1); fill:none;" y2="220" />
      <line x1="245" x2="245" y1="215" style="clip-path:url(#clipPath1); fill:none;" y2="205" />
      <line x1="245" x2="245" y1="200" style="clip-path:url(#clipPath1); fill:none;" y2="190" />
      <line x1="245" x2="245" y1="185" style="clip-path:url(#clipPath1); fill:none;" y2="175" />
      <line x1="245" x2="245" y1="170" style="clip-path:url(#clipPath1); fill:none;" y2="160" />
      <line x1="245" x2="245" y1="155" style="clip-path:url(#clipPath1); fill:none;" y2="145" />
      <line x1="245" x2="245" y1="140" style="clip-path:url(#clipPath1); fill:none;" y2="139" />
      <line x1="424" x2="424" y1="244" style="clip-path:url(#clipPath1); fill:none;" y2="235" />
      <line x1="424" x2="424" y1="230" style="clip-path:url(#clipPath1); fill:none;" y2="220" />
      <line x1="424" x2="424" y1="215" style="clip-path:url(#clipPath1); fill:none;" y2="205" />
      <line x1="424" x2="424" y1="200" style="clip-path:url(#clipPath1); fill:none;" y2="190" />
      <line x1="424" x2="424" y1="185" style="clip-path:url(#clipPath1); fill:none;" y2="175" />
      <line x1="424" x2="424" y1="170" style="clip-path:url(#clipPath1); fill:none;" y2="164" />
      <line x1="497" x2="497" y1="675" style="clip-path:url(#clipPath1); fill:none; stroke:rgb(0,64,64);" y2="640" />
      <line x1="497" x2="334" y1="640" style="clip-path:url(#clipPath1); fill:none; stroke:rgb(0,64,64);" y2="640" />
      <line x1="334" x2="334" y1="640" style="clip-path:url(#clipPath1); fill:none; stroke:rgb(0,64,64);" y2="605" />
      <line x1="295" x2="375" y1="79" style="clip-path:url(#clipPath1); fill:none; stroke:rgb(0,90,0);" y2="79" />
      <line x1="171" x2="171" y1="675" style="clip-path:url(#clipPath1); fill:none; stroke:rgb(0,64,64);" y2="640" />
      <line x1="171" x2="334" y1="640" style="clip-path:url(#clipPath1); fill:none; stroke:rgb(0,64,64);" y2="640" />
      <line x1="334" x2="334" y1="640" style="clip-path:url(#clipPath1); fill:none; stroke:rgb(0,64,64);" y2="605" />
      <line x1="944" x2="1129" y1="72" style="clip-path:url(#clipPath1); fill:none; stroke:rgb(0,0,130);" y2="72" />
      <line x1="1129" x2="944" y1="125" style="clip-path:url(#clipPath1); fill:none; stroke:rgb(0,90,0);" y2="125" />
      <polygon style="fill:white; clip-path:url(#clipPath1); stroke:none;" points=" 245 139 251 157 239 157" />
      <polygon style="fill:none; clip-path:url(#clipPath1);" points=" 245 139 251 157 239 157" />
      <line x1="239" x2="245" y1="157" style="clip-path:url(#clipPath1); fill:none;" y2="139" />
      <polygon style="fill:white; clip-path:url(#clipPath1); stroke:none;" points=" 424 164 430 182 418 182" />
      <polygon style="fill:none; clip-path:url(#clipPath1);" points=" 424 164 430 182 418 182" />
      <line x1="418" x2="424" y1="182" style="clip-path:url(#clipPath1); fill:none;" y2="164" />
      <polygon style="fill:white; clip-path:url(#clipPath1); stroke:none;" points=" 334 605 340 623 328 623" />
      <polygon style="fill:none; clip-path:url(#clipPath1); stroke:rgb(0,64,64);" points=" 334 605 340 623 328 623" />
      <line x1="328" x2="334" y1="623" style="clip-path:url(#clipPath1); fill:none; stroke:rgb(0,64,64);" y2="605" />
      <circle style="clip-path:url(#clipPath1); fill:white; stroke:none;" r="3" cx="372" cy="79" />
      <circle style="clip-path:url(#clipPath1); fill:none; stroke:rgb(0,90,0);" r="3" cx="372" cy="79" />
      <polygon style="fill:white; clip-path:url(#clipPath1); stroke:none;" points=" 334 605 340 623 328 623" />
      <polygon style="fill:none; clip-path:url(#clipPath1); stroke:rgb(0,64,64);" points=" 334 605 340 623 328 623" />
      <line x1="328" x2="334" y1="623" style="clip-path:url(#clipPath1); fill:none; stroke:rgb(0,64,64);" y2="605" />
      <polygon style="fill:white; clip-path:url(#clipPath1); stroke:none;" points=" 944 72 952 68 960 72 952 76" />
      <polygon style="fill:none; clip-path:url(#clipPath1); stroke:rgb(0,0,130);" points=" 944 72 952 68 960 72 952 76" />
      <line x1="952" x2="944" y1="76" style="clip-path:url(#clipPath1); fill:none; stroke:rgb(0,0,130);" y2="72" />
      <line x1="1129" x2="1117" y1="72" style="clip-path:url(#clipPath1); fill:none; stroke:rgb(0,0,130);" y2="67" />
      <line x1="1129" x2="1117" y1="72" style="clip-path:url(#clipPath1); fill:none; stroke:rgb(0,0,130);" y2="77" />
    </g>
    <g style="fill:rgb(0,0,130); font-size:11; font-family:sans-serif; stroke:rgb(0,0,130);">
      <text x="1068" y="94" style="clip-path:url(#clipPath1); stroke:none;">m_control
      </text>
      <circle style="clip-path:url(#clipPath1); fill:white; stroke:none;" r="3" cx="947" cy="125" />
      <circle style="clip-path:url(#clipPath1); fill:none; stroke:rgb(0,90,0);" r="3" cx="947" cy="125" />
      <rect x="43" y="678" width="259" style="clip-path:url(#clipPath1); fill:navy; stroke:none;" height="110" />
      <rect x="40" y="675" width="259" style="clip-path:url(#clipPath1); fill:white; stroke:none;" height="110" />
      <rect x="40" y="675" width="259" style="clip-path:url(#clipPath1); fill:none; stroke:black;" height="110" />
    </g>
    <g style="font-size:11; font-family:sans-serif; font-weight:bold;">
      <text x="121" y="688" style="clip-path:url(#clipPath3); stroke:none;">MainLoggerTeam
      </text>
    </g>
    <g style="font-size:11; font-family:sans-serif;">
      <line x1="40" x2="299" y1="697" style="clip-path:url(#clipPath2); fill:none;" y2="697" />
      <line x1="40" x2="299" y1="720" style="clip-path:url(#clipPath2); fill:none;" y2="720" />
    </g>
    <g style="font-size:11; font-family:sans-serif;">
      <text x="46" y="741" style="clip-path:url(#clipPath5); stroke:none;">+MainLoggerTeam(mainLogger:Logger)
      </text>
      <text x="46" y="756" style="clip-path:url(#clipPath5); stroke:none;">+createChildLoggerTeam(name:String):LoggerTeam
      </text>
      <text x="46" y="771" style="clip-path:url(#clipPath5); stroke:none;">+narrow(logger:Logger):LoggerTeam
      </text>
      <line x1="46" x2="226" y1="773" style="clip-path:url(#clipPath5); fill:none;" y2="773" />
    </g>
    <g style="fill:navy; font-size:11; font-family:sans-serif; stroke:navy;">
      <rect x="23" y="23" width="272" style="clip-path:url(#clipPath1); stroke:none;" height="116" />
      <rect x="20" y="20" width="272" style="clip-path:url(#clipPath1); fill:white; stroke:none;" height="116" />
      <rect x="20" y="20" width="272" style="clip-path:url(#clipPath1); fill:none; stroke:black;" height="116" />
    </g>
    <g style="font-size:11; font-family:sans-serif;">
      <text x="135" y="33" style="clip-path:url(#clipPath7); stroke:none;">interface
      </text>
      <text x="118" y="48" style="clip-path:url(#clipPath7); font-style:italic; stroke:none; font-weight:bold;">StandardTags
      </text>
    </g>
    <g style="font-size:11; font-family:sans-serif;">
      <line x1="20" x2="292" y1="57" style="clip-path:url(#clipPath6); fill:none;" y2="57" />
    </g>
    <g style="font-size:11; font-family:sans-serif;">
      <text x="26" y="78" style="clip-path:url(#clipPath9); stroke:none;">+MAIN_LOGGER_TAG : Object = new Object()
      </text>
      <line x1="26" x2="250" y1="80" style="clip-path:url(#clipPath9); fill:none;" y2="80" />
      <text x="26" y="93" style="clip-path:url(#clipPath9); stroke:none;">+DIAGNOSTIC_LOGGER_TAG : Object = new Object()
      </text>
      <line x1="26" x2="287" y1="95" style="clip-path:url(#clipPath9); fill:none;" y2="95" />
    </g>
    <g style="font-size:11; font-family:sans-serif;">
      <line x1="20" x2="292" y1="103" style="clip-path:url(#clipPath6); fill:none;" y2="103" />
    </g>
    <g style="fill:navy; font-size:11; font-family:sans-serif; stroke:navy;">
      <rect x="325" y="678" width="347" style="clip-path:url(#clipPath1); stroke:none;" height="133" />
      <rect x="322" y="675" width="347" style="clip-path:url(#clipPath1); fill:white; stroke:none;" height="133" />
      <rect x="322" y="675" width="347" style="clip-path:url(#clipPath1); fill:none; stroke:black;" height="133" />
    </g>
    <g style="font-size:11; font-family:sans-serif; font-weight:bold;">
      <text x="428" y="688" style="clip-path:url(#clipPath11); stroke:none;">DiagnosticsLoggerTeam
      </text>
    </g>
    <g style="font-size:11; font-family:sans-serif;">
      <line x1="322" x2="669" y1="697" style="clip-path:url(#clipPath10); fill:none;" y2="697" />
    </g>
    <g style="font-size:11; font-family:sans-serif;">
      <text x="328" y="718" style="clip-path:url(#clipPath13); stroke:none;">-m_diagnosticsLogger : Logger
      </text>
    </g>
    <g style="font-size:11; font-family:sans-serif;">
      <line x1="322" x2="669" y1="728" style="clip-path:url(#clipPath10); fill:none;" y2="728" />
    </g>
    <g style="font-size:11; font-family:sans-serif;">
      <text x="328" y="749" style="clip-path:url(#clipPath15); stroke:none;">+DiagnosticsLoggerTeam(mainLogger:Logger,diagnosticsLogger:Logger)
      </text>
      <text x="328" y="764" style="clip-path:url(#clipPath15); stroke:none;">+getMember(tag:Object):Logger
      </text>
      <text x="328" y="779" style="clip-path:url(#clipPath15); stroke:none;">+createChildLoggerTeam(name:String):LoggerTeam
      </text>
      <text x="328" y="794" style="clip-path:url(#clipPath15); stroke:none;">+narrow(logger:Logger,diagnosticsParent:Logger,childName:String):LoggerTeam
      </text>
      <line x1="328" x2="717" y1="796" style="clip-path:url(#clipPath15); fill:none;" y2="796" />
    </g>
    <g style="fill:navy; font-size:11; font-family:sans-serif; stroke:navy;">
      <rect x="198" y="247" width="275" style="clip-path:url(#clipPath1); stroke:none;" height="358" />
      <rect x="195" y="244" width="275" style="clip-path:url(#clipPath1); fill:white; stroke:none;" height="358" />
      <rect x="195" y="244" width="275" style="clip-path:url(#clipPath1); fill:none; stroke:black;" height="358" />
    </g>
    <g style="font-style:italic; font-size:11; font-weight:bold; font-family:sans-serif;">
      <text x="275" y="257" style="clip-path:url(#clipPath17); stroke:none;">AbstractLoggerTeam
      </text>
    </g>
    <g style="font-size:11; font-family:sans-serif;">
      <line x1="195" x2="470" y1="266" style="clip-path:url(#clipPath16); fill:none;" y2="266" />
    </g>
    <g style="font-size:11; font-family:sans-serif;">
      <text x="201" y="287" style="clip-path:url(#clipPath19); stroke:none;">#NULL_LOGGER : Logger = new NullLogger()
      </text>
      <line x1="201" x2="421" y1="289" style="clip-path:url(#clipPath19); fill:none;" y2="289" />
      <text x="201" y="302" style="clip-path:url(#clipPath19); stroke:none;">-m_mainLogger : Logger
      </text>
    </g>
    <g style="font-size:11; font-family:sans-serif;">
      <line x1="195" x2="470" y1="312" style="clip-path:url(#clipPath16); fill:none;" y2="312" />
    </g>
    <g style="font-size:11; font-family:sans-serif;">
      <text x="201" y="333" style="clip-path:url(#clipPath21); stroke:none;">#AbstractLoggerTeam(mainLogger:Logger)
      </text>
      <text x="201" y="348" style="clip-path:url(#clipPath21); stroke:none;">+getMember(tag:Object):Logger
      </text>
      <text x="201" y="363" style="clip-path:url(#clipPath21); stroke:none;">+getChildLogger(name:String):Logger
      </text>
      <text x="201" y="378" style="clip-path:url(#clipPath21); stroke:none;">+debug(message:String):void
      </text>
      <text x="201" y="393" style="clip-path:url(#clipPath21); stroke:none;">+debug(message:String,throwable:Throwable):void
      </text>
      <text x="201" y="408" style="clip-path:url(#clipPath21); stroke:none;">+isDebugEnabled():boolean
      </text>
      <text x="201" y="423" style="clip-path:url(#clipPath21); stroke:none;">+info(message:String):void
      </text>
      <text x="201" y="438" style="clip-path:url(#clipPath21); stroke:none;">+info(message:String,throwable:Throwable):void
      </text>
      <text x="201" y="453" style="clip-path:url(#clipPath21); stroke:none;">+isInfoEnabled():boolean
      </text>
      <text x="201" y="468" style="clip-path:url(#clipPath21); stroke:none;">+warn(message:String):void
      </text>
      <text x="201" y="483" style="clip-path:url(#clipPath21); stroke:none;">+warn(message:String,throwable:Throwable):void
      </text>
      <text x="201" y="498" style="clip-path:url(#clipPath21); stroke:none;">+isWarnEnabled():boolean
      </text>
      <text x="201" y="513" style="clip-path:url(#clipPath21); stroke:none;">+error(message:String):void
      </text>
      <text x="201" y="528" style="clip-path:url(#clipPath21); stroke:none;">+error(message:String,throwable:Throwable):void
      </text>
      <text x="201" y="543" style="clip-path:url(#clipPath21); stroke:none;">+isErrorEnabled():boolean
      </text>
      <text x="201" y="558" style="clip-path:url(#clipPath21); stroke:none;">+fatalError(message:String):void
      </text>
      <text x="201" y="573" style="clip-path:url(#clipPath21); stroke:none;">+fatalError(message:String,throwable:Throwable):void
      </text>
      <text x="201" y="588" style="clip-path:url(#clipPath21); stroke:none;">+isFatalErrorEnabled():boolean
      </text>
    </g>
    <g style="fill:navy; font-size:11; font-family:sans-serif; stroke:navy;">
      <rect x="378" y="23" width="268" style="clip-path:url(#clipPath1); stroke:none;" height="141" />
      <rect x="375" y="20" width="268" style="clip-path:url(#clipPath1); fill:white; stroke:none;" height="141" />
      <rect x="375" y="20" width="268" style="clip-path:url(#clipPath1); fill:none; stroke:black;" height="141" />
    </g>
    <g style="font-size:11; font-family:sans-serif;">
      <text x="488" y="33" style="clip-path:url(#clipPath23); stroke:none;">interface
      </text>
      <text x="475" y="48" style="clip-path:url(#clipPath23); font-style:italic; stroke:none; font-weight:bold;">LoggerTeam
      </text>
    </g>
    <g style="font-size:11; font-family:sans-serif;">
      <line x1="375" x2="643" y1="57" style="clip-path:url(#clipPath22); fill:none;" y2="57" />
      <line x1="375" x2="643" y1="80" style="clip-path:url(#clipPath22); fill:none;" y2="80" />
    </g>
    <g style="font-style:italic; font-size:11; font-family:sans-serif;">
      <text x="381" y="101" style="clip-path:url(#clipPath25); stroke:none;">+getMember(tag:Object):Logger
      </text>
      <text x="381" y="116" style="clip-path:url(#clipPath25); stroke:none;">+createChildLoggerTeam(name:String):LoggerTeam
      </text>
    </g>
    <g style="font-size:11; font-family:sans-serif;">
      <line x1="375" x2="643" y1="126" style="clip-path:url(#clipPath22); fill:none;" y2="126" />
    </g>
    <g style="font-style:italic; font-size:11; font-family:sans-serif;">
      <text x="381" y="147" style="clip-path:url(#clipPath27); stroke:none;">+StandardTags
      </text>
      <line x1="381" x2="456" y1="149" style="clip-path:url(#clipPath27); fill:none;" y2="149" />
    </g>
    <g style="fill:navy; font-size:11; font-family:sans-serif; stroke:navy;">
      <rect x="669" y="23" width="275" style="clip-path:url(#clipPath1); stroke:none;" height="359" />
      <rect x="666" y="20" width="275" style="clip-path:url(#clipPath1); fill:white; stroke:none;" height="359" />
      <rect x="666" y="20" width="275" style="clip-path:url(#clipPath1); fill:none; stroke:black;" height="359" />
    </g>
    <g style="font-size:11; font-family:sans-serif; font-weight:bold;">
      <text x="750" y="33" style="clip-path:url(#clipPath29); stroke:none;">ControllableLogger
      </text>
    </g>
    <g style="font-size:11; font-family:sans-serif;">
      <line x1="666" x2="941" y1="42" style="clip-path:url(#clipPath28); fill:none;" y2="42" />
    </g>
    <g style="font-size:11; font-family:sans-serif;">
      <text x="672" y="63" style="clip-path:url(#clipPath31); stroke:none;">-m_logger : Logger
      </text>
    </g>
    <g style="font-size:11; font-family:sans-serif;">
      <line x1="666" x2="941" y1="73" style="clip-path:url(#clipPath28); fill:none;" y2="73" />
    </g>
    <g style="font-size:11; font-family:sans-serif;">
      <text x="672" y="94" style="clip-path:url(#clipPath33); stroke:none;">+ControllableLogger(logger:Logger,control:Control)
      </text>
      <text x="672" y="109" style="clip-path:url(#clipPath33); stroke:none;">+getChildLogger(name:String):Logger
      </text>
      <text x="672" y="124" style="clip-path:url(#clipPath33); stroke:none;">+debug(message:String):void
      </text>
      <text x="672" y="139" style="clip-path:url(#clipPath33); stroke:none;">+debug(message:String,throwable:Throwable):void
      </text>
      <text x="672" y="154" style="clip-path:url(#clipPath33); stroke:none;">+isDebugEnabled():boolean
      </text>
      <text x="672" y="169" style="clip-path:url(#clipPath33); stroke:none;">+info(message:String):void
      </text>
      <text x="672" y="184" style="clip-path:url(#clipPath33); stroke:none;">+info(message:String,throwable:Throwable):void
      </text>
      <text x="672" y="199" style="clip-path:url(#clipPath33); stroke:none;">+isInfoEnabled():boolean
      </text>
      <text x="672" y="214" style="clip-path:url(#clipPath33); stroke:none;">+warn(message:String):void
      </text>
      <text x="672" y="229" style="clip-path:url(#clipPath33); stroke:none;">+warn(message:String,throwable:Throwable):void
      </text>
      <text x="672" y="244" style="clip-path:url(#clipPath33); stroke:none;">+isWarnEnabled():boolean
      </text>
      <text x="672" y="259" style="clip-path:url(#clipPath33); stroke:none;">+error(message:String):void
      </text>
      <text x="672" y="274" style="clip-path:url(#clipPath33); stroke:none;">+error(message:String,throwable:Throwable):void
      </text>
      <text x="672" y="289" style="clip-path:url(#clipPath33); stroke:none;">+isErrorEnabled():boolean
      </text>
      <text x="672" y="304" style="clip-path:url(#clipPath33); stroke:none;">+fatalError(message:String):void
      </text>
      <text x="672" y="319" style="clip-path:url(#clipPath33); stroke:none;">+fatalError(message:String,throwable:Throwable):void
      </text>
      <text x="672" y="334" style="clip-path:url(#clipPath33); stroke:none;">+isFatalErrorEnabled():boolean
      </text>
    </g>
    <g style="font-size:11; font-family:sans-serif;">
      <line x1="666" x2="941" y1="344" style="clip-path:url(#clipPath28); fill:none;" y2="344" />
    </g>
    <g style="font-style:italic; font-size:11; font-family:sans-serif;">
      <text x="672" y="365" style="clip-path:url(#clipPath35); stroke:none;">+Control
      </text>
      <line x1="672" x2="714" y1="367" style="clip-path:url(#clipPath35); fill:none;" y2="367" />
    </g>
    <g style="fill:navy; font-size:11; font-family:sans-serif; stroke:navy;">
      <rect x="1132" y="23" width="168" style="clip-path:url(#clipPath1); stroke:none;" height="155" />
      <rect x="1129" y="20" width="168" style="clip-path:url(#clipPath1); fill:white; stroke:none;" height="155" />
      <rect x="1129" y="20" width="168" style="clip-path:url(#clipPath1); fill:none; stroke:black;" height="155" />
    </g>
    <g style="font-size:11; font-family:sans-serif;">
      <text x="1192" y="33" style="clip-path:url(#clipPath37); stroke:none;">interface
      </text>
      <text x="1192" y="48" style="clip-path:url(#clipPath37); font-style:italic; stroke:none; font-weight:bold;">Control
      </text>
    </g>
    <g style="font-size:11; font-family:sans-serif;">
      <line x1="1129" x2="1297" y1="57" style="clip-path:url(#clipPath36); fill:none;" y2="57" />
      <line x1="1129" x2="1297" y1="80" style="clip-path:url(#clipPath36); fill:none;" y2="80" />
    </g>
    <g style="font-style:italic; font-size:11; font-family:sans-serif;">
      <text x="1135" y="101" style="clip-path:url(#clipPath39); stroke:none;">+isDebugEnabled():boolean
      </text>
      <text x="1135" y="116" style="clip-path:url(#clipPath39); stroke:none;">+isInfoEnabled():boolean
      </text>
      <text x="1135" y="131" style="clip-path:url(#clipPath39); stroke:none;">+isWarnEnabled():boolean
      </text>
      <text x="1135" y="146" style="clip-path:url(#clipPath39); stroke:none;">+isErrorEnabled():boolean
      </text>
      <text x="1135" y="161" style="clip-path:url(#clipPath39); stroke:none;">+isFatalErrorEnabled():boolean
      </text>
    </g>
  </g>
</svg>
